<svg width="84" height="31" viewBox="0 0 84 31" fill="none" xmlns="http://www.w3.org/2000/svg">
<rect width="84" height="31" rx="6" fill="#D8E9A8"/>
<path d="M29.2754 12.6055L26.7266 20H25.1855L28.3965 11.4688H29.3809L29.2754 12.6055ZM31.4082 20L28.8535 12.6055L28.7422 11.4688H29.7324L32.9551 20H31.4082ZM31.2852 16.8359V18.002H26.6445V16.8359H31.2852ZM35.082 14.8789V22.4375H33.6699V13.6602H34.9707L35.082 14.8789ZM39.2129 16.7715V16.8945C39.2129 17.3555 39.1582 17.7832 39.0488 18.1777C38.9434 18.5684 38.7852 18.9102 38.5742 19.2031C38.3672 19.4922 38.1113 19.7168 37.8066 19.877C37.502 20.0371 37.1504 20.1172 36.752 20.1172C36.3574 20.1172 36.0117 20.0449 35.7148 19.9004C35.4219 19.752 35.1738 19.543 34.9707 19.2734C34.7676 19.0039 34.6035 18.6875 34.4785 18.3242C34.3574 17.957 34.2715 17.5547 34.2207 17.1172V16.6426C34.2715 16.1777 34.3574 15.7559 34.4785 15.377C34.6035 14.998 34.7676 14.6719 34.9707 14.3984C35.1738 14.125 35.4219 13.9141 35.7148 13.7656C36.0078 13.6172 36.3496 13.543 36.7402 13.543C37.1387 13.543 37.4922 13.6211 37.8008 13.7773C38.1094 13.9297 38.3691 14.1484 38.5801 14.4336C38.791 14.7148 38.9492 15.0547 39.0547 15.4531C39.1602 15.8477 39.2129 16.2871 39.2129 16.7715ZM37.8008 16.8945V16.7715C37.8008 16.4785 37.7734 16.207 37.7188 15.957C37.6641 15.7031 37.5781 15.4805 37.4609 15.2891C37.3438 15.0977 37.1934 14.9492 37.0098 14.8438C36.8301 14.7344 36.6133 14.6797 36.3594 14.6797C36.1094 14.6797 35.8945 14.7227 35.7148 14.8086C35.5352 14.8906 35.3848 15.0059 35.2637 15.1543C35.1426 15.3027 35.0488 15.4766 34.9824 15.6758C34.916 15.8711 34.8691 16.084 34.8418 16.3145V17.4512C34.8887 17.7324 34.9688 17.9902 35.082 18.2246C35.1953 18.459 35.3555 18.6465 35.5625 18.7871C35.7734 18.9238 36.043 18.9922 36.3711 18.9922C36.625 18.9922 36.8418 18.9375 37.0215 18.8281C37.2012 18.7188 37.3477 18.5684 37.4609 18.377C37.5781 18.1816 37.6641 17.957 37.7188 17.7031C37.7734 17.4492 37.8008 17.1797 37.8008 16.8945ZM41.832 14.8789V22.4375H40.4199V13.6602H41.7207L41.832 14.8789ZM45.9629 16.7715V16.8945C45.9629 17.3555 45.9082 17.7832 45.7988 18.1777C45.6934 18.5684 45.5352 18.9102 45.3242 19.2031C45.1172 19.4922 44.8613 19.7168 44.5566 19.877C44.252 20.0371 43.9004 20.1172 43.502 20.1172C43.1074 20.1172 42.7617 20.0449 42.4648 19.9004C42.1719 19.752 41.9238 19.543 41.7207 19.2734C41.5176 19.0039 41.3535 18.6875 41.2285 18.3242C41.1074 17.957 41.0215 17.5547 40.9707 17.1172V16.6426C41.0215 16.1777 41.1074 15.7559 41.2285 15.377C41.3535 14.998 41.5176 14.6719 41.7207 14.3984C41.9238 14.125 42.1719 13.9141 42.4648 13.7656C42.7578 13.6172 43.0996 13.543 43.4902 13.543C43.8887 13.543 44.2422 13.6211 44.5508 13.7773C44.8594 13.9297 45.1191 14.1484 45.3301 14.4336C45.541 14.7148 45.6992 15.0547 45.8047 15.4531C45.9102 15.8477 45.9629 16.2871 45.9629 16.7715ZM44.5508 16.8945V16.7715C44.5508 16.4785 44.5234 16.207 44.4688 15.957C44.4141 15.7031 44.3281 15.4805 44.2109 15.2891C44.0938 15.0977 43.9434 14.9492 43.7598 14.8438C43.5801 14.7344 43.3633 14.6797 43.1094 14.6797C42.8594 14.6797 42.6445 14.7227 42.4648 14.8086C42.2852 14.8906 42.1348 15.0059 42.0137 15.1543C41.8926 15.3027 41.7988 15.4766 41.7324 15.6758C41.666 15.8711 41.6191 16.084 41.5918 16.3145V17.4512C41.6387 17.7324 41.7188 17.9902 41.832 18.2246C41.9453 18.459 42.1055 18.6465 42.3125 18.7871C42.5234 18.9238 42.793 18.9922 43.1211 18.9922C43.375 18.9922 43.5918 18.9375 43.7715 18.8281C43.9512 18.7188 44.0977 18.5684 44.2109 18.377C44.3281 18.1816 44.4141 17.957 44.4688 17.7031C44.5234 17.4492 44.5508 17.1797 44.5508 16.8945ZM54.7812 17.8027C54.7812 17.627 54.7539 17.4707 54.6992 17.334C54.6484 17.1973 54.5566 17.0723 54.4238 16.959C54.291 16.8457 54.1035 16.7363 53.8613 16.6309C53.623 16.5215 53.3184 16.4102 52.9473 16.2969C52.541 16.1719 52.166 16.0332 51.8223 15.8809C51.4824 15.7246 51.1855 15.5449 50.9316 15.3418C50.6777 15.1348 50.4805 14.8984 50.3398 14.6328C50.1992 14.3633 50.1289 14.0527 50.1289 13.7012C50.1289 13.3535 50.2012 13.0371 50.3457 12.752C50.4941 12.4668 50.7031 12.2207 50.9727 12.0137C51.2461 11.8027 51.5684 11.6406 51.9395 11.5273C52.3105 11.4102 52.7207 11.3516 53.1699 11.3516C53.8027 11.3516 54.3477 11.4688 54.8047 11.7031C55.2656 11.9375 55.6191 12.252 55.8652 12.6465C56.1152 13.041 56.2402 13.4766 56.2402 13.9531H54.7812C54.7812 13.6719 54.7207 13.4238 54.5996 13.209C54.4824 12.9902 54.3027 12.8184 54.0605 12.6934C53.8223 12.5684 53.5195 12.5059 53.1523 12.5059C52.8047 12.5059 52.5156 12.5586 52.2852 12.6641C52.0547 12.7695 51.8828 12.9121 51.7695 13.0918C51.6562 13.2715 51.5996 13.4746 51.5996 13.7012C51.5996 13.8613 51.6367 14.0078 51.7109 14.1406C51.7852 14.2695 51.8984 14.3906 52.0508 14.5039C52.2031 14.6133 52.3945 14.7168 52.625 14.8145C52.8555 14.9121 53.127 15.0059 53.4395 15.0957C53.9121 15.2363 54.3242 15.3926 54.6758 15.5645C55.0273 15.7324 55.3203 15.9238 55.5547 16.1387C55.7891 16.3535 55.9648 16.5977 56.082 16.8711C56.1992 17.1406 56.2578 17.4473 56.2578 17.791C56.2578 18.1504 56.1855 18.4746 56.041 18.7637C55.8965 19.0488 55.6895 19.293 55.4199 19.4961C55.1543 19.6953 54.834 19.8496 54.459 19.959C54.0879 20.0645 53.6738 20.1172 53.2168 20.1172C52.8066 20.1172 52.4023 20.0625 52.0039 19.9531C51.6094 19.8438 51.25 19.6777 50.9258 19.4551C50.6016 19.2285 50.3438 18.9473 50.1523 18.6113C49.9609 18.2715 49.8652 17.875 49.8652 17.4219H51.3359C51.3359 17.6992 51.3828 17.9355 51.4766 18.1309C51.5742 18.3262 51.709 18.4863 51.8809 18.6113C52.0527 18.7324 52.252 18.8223 52.4785 18.8809C52.709 18.9395 52.9551 18.9688 53.2168 18.9688C53.5605 18.9688 53.8477 18.9199 54.0781 18.8223C54.3125 18.7246 54.4883 18.5879 54.6055 18.4121C54.7227 18.2363 54.7812 18.0332 54.7812 17.8027ZM60.3242 13.6602V14.6914H56.75V13.6602H60.3242ZM57.7812 12.1074H59.1934V18.248C59.1934 18.4434 59.2207 18.5938 59.2754 18.6992C59.334 18.8008 59.4141 18.8691 59.5156 18.9043C59.6172 18.9395 59.7363 18.957 59.873 18.957C59.9707 18.957 60.0645 18.9512 60.1543 18.9395C60.2441 18.9277 60.3164 18.916 60.3711 18.9043L60.377 19.9824C60.2598 20.0176 60.123 20.0488 59.9668 20.0762C59.8145 20.1035 59.6387 20.1172 59.4395 20.1172C59.1152 20.1172 58.8281 20.0605 58.5781 19.9473C58.3281 19.8301 58.1328 19.6406 57.9922 19.3789C57.8516 19.1172 57.7812 18.7695 57.7812 18.3359V12.1074ZM61.0039 16.9004V16.7656C61.0039 16.3086 61.0703 15.8848 61.2031 15.4941C61.3359 15.0996 61.5273 14.7578 61.7773 14.4688C62.0312 14.1758 62.3398 13.9492 62.7031 13.7891C63.0703 13.625 63.4844 13.543 63.9453 13.543C64.4102 13.543 64.8242 13.625 65.1875 13.7891C65.5547 13.9492 65.8652 14.1758 66.1191 14.4688C66.373 14.7578 66.5664 15.0996 66.6992 15.4941C66.832 15.8848 66.8984 16.3086 66.8984 16.7656V16.9004C66.8984 17.3574 66.832 17.7812 66.6992 18.1719C66.5664 18.5625 66.373 18.9043 66.1191 19.1973C65.8652 19.4863 65.5566 19.7129 65.1934 19.877C64.8301 20.0371 64.418 20.1172 63.957 20.1172C63.4922 20.1172 63.0762 20.0371 62.709 19.877C62.3457 19.7129 62.0371 19.4863 61.7832 19.1973C61.5293 18.9043 61.3359 18.5625 61.2031 18.1719C61.0703 17.7812 61.0039 17.3574 61.0039 16.9004ZM62.416 16.7656V16.9004C62.416 17.1855 62.4453 17.4551 62.5039 17.709C62.5625 17.9629 62.6543 18.1855 62.7793 18.377C62.9043 18.5684 63.0645 18.7188 63.2598 18.8281C63.4551 18.9375 63.6875 18.9922 63.957 18.9922C64.2188 18.9922 64.4453 18.9375 64.6367 18.8281C64.832 18.7188 64.9922 18.5684 65.1172 18.377C65.2422 18.1855 65.334 17.9629 65.3926 17.709C65.4551 17.4551 65.4863 17.1855 65.4863 16.9004V16.7656C65.4863 16.4844 65.4551 16.2188 65.3926 15.9688C65.334 15.7148 65.2402 15.4902 65.1113 15.2949C64.9863 15.0996 64.8262 14.9473 64.6309 14.8379C64.4395 14.7246 64.2109 14.668 63.9453 14.668C63.6797 14.668 63.4492 14.7246 63.2539 14.8379C63.0625 14.9473 62.9043 15.0996 62.7793 15.2949C62.6543 15.4902 62.5625 15.7148 62.5039 15.9688C62.4453 16.2188 62.416 16.4844 62.416 16.7656ZM69.5 14.8672V20H68.0879V13.6602H69.4355L69.5 14.8672ZM71.4395 13.6191L71.4277 14.9316C71.3418 14.916 71.248 14.9043 71.1465 14.8965C71.0488 14.8887 70.9512 14.8848 70.8535 14.8848C70.6113 14.8848 70.3984 14.9199 70.2148 14.9902C70.0312 15.0566 69.877 15.1543 69.752 15.2832C69.6309 15.4082 69.5371 15.5605 69.4707 15.7402C69.4043 15.9199 69.3652 16.1211 69.3535 16.3438L69.0312 16.3672C69.0312 15.9688 69.0703 15.5996 69.1484 15.2598C69.2266 14.9199 69.3438 14.6211 69.5 14.3633C69.6602 14.1055 69.8594 13.9043 70.0977 13.7598C70.3398 13.6152 70.6191 13.543 70.9355 13.543C71.0215 13.543 71.1133 13.5508 71.2109 13.5664C71.3125 13.582 71.3887 13.5996 71.4395 13.6191ZM75.002 20.1172C74.5332 20.1172 74.1094 20.041 73.7305 19.8887C73.3555 19.7324 73.0352 19.5156 72.7695 19.2383C72.5078 18.9609 72.3066 18.6348 72.166 18.2598C72.0254 17.8848 71.9551 17.4805 71.9551 17.0469V16.8125C71.9551 16.3164 72.0273 15.8672 72.1719 15.4648C72.3164 15.0625 72.5176 14.7188 72.7754 14.4336C73.0332 14.1445 73.3379 13.9238 73.6895 13.7715C74.041 13.6191 74.4219 13.543 74.832 13.543C75.2852 13.543 75.6816 13.6191 76.0215 13.7715C76.3613 13.9238 76.6426 14.1387 76.8652 14.416C77.0918 14.6895 77.2598 15.0156 77.3691 15.3945C77.4824 15.7734 77.5391 16.1914 77.5391 16.6484V17.252H72.6406V16.2383H76.1445V16.127C76.1367 15.873 76.0859 15.6348 75.9922 15.4121C75.9023 15.1895 75.7637 15.0098 75.5762 14.873C75.3887 14.7363 75.1387 14.668 74.8262 14.668C74.5918 14.668 74.3828 14.7188 74.1992 14.8203C74.0195 14.918 73.8691 15.0605 73.748 15.248C73.627 15.4355 73.5332 15.6621 73.4668 15.9277C73.4043 16.1895 73.373 16.4844 73.373 16.8125V17.0469C73.373 17.3242 73.4102 17.582 73.4844 17.8203C73.5625 18.0547 73.6758 18.2598 73.8242 18.4355C73.9727 18.6113 74.1523 18.75 74.3633 18.8516C74.5742 18.9492 74.8145 18.998 75.084 18.998C75.4238 18.998 75.7266 18.9297 75.9922 18.793C76.2578 18.6562 76.4883 18.4629 76.6836 18.2129L77.4277 18.9336C77.291 19.1328 77.1133 19.3242 76.8945 19.5078C76.6758 19.6875 76.4082 19.834 76.0918 19.9473C75.7793 20.0605 75.416 20.1172 75.002 20.1172Z" fill="black"/>
<path fill-rule="evenodd" clip-rule="evenodd" d="M16.6031 9.39468C17.1499 8.76093 17.5184 7.87824 17.4176 7C16.6296 7.03 15.6763 7.50336 15.1113 8.13636C14.6039 8.69811 14.161 9.5957 14.2801 10.4567C15.159 10.5219 16.0562 10.0292 16.6031 9.39468ZM18.5741 14.9688C18.5961 17.2391 20.6522 17.9943 20.6749 18.004C20.6582 18.0573 20.3465 19.0801 19.5919 20.1376C18.9389 21.0511 18.2617 21.9609 17.1946 21.9804C16.1465 21.9991 15.809 21.3849 14.61 21.3849C13.4117 21.3849 13.037 21.9608 12.045 21.999C11.0151 22.0358 10.2302 21.0107 9.57264 20.1002C8.22723 18.238 7.1996 14.8376 8.57989 12.5427C9.26549 11.4034 10.4903 10.6809 11.8206 10.6629C12.8315 10.6441 13.7863 11.3147 14.4044 11.3147C15.0225 11.3147 16.1829 10.5085 17.4024 10.627C17.9128 10.6472 19.3462 10.8242 20.2661 12.1149C20.1918 12.1592 18.5559 13.0713 18.5741 14.9688Z" fill="black"/>
</svg>
