<svg width="189" height="43" viewBox="0 0 189 43" fill="none" xmlns="http://www.w3.org/2000/svg">
<rect width="189" height="43" rx="16" fill="#D8E9A8"/>
<path d="M27.6328 22.1758V28.8203C27.3828 29.1406 26.9883 29.4883 26.4492 29.8633C25.918 30.2383 25.2227 30.5625 24.3633 30.8359C23.5039 31.1016 22.4492 31.2344 21.1992 31.2344C20.1133 31.2344 19.1211 31.0547 18.2227 30.6953C17.3242 30.3281 16.5508 29.793 15.9023 29.0898C15.2539 28.3867 14.7539 27.5273 14.4023 26.5117C14.0508 25.4961 13.875 24.3359 13.875 23.0312V21.9062C13.875 20.6016 14.0391 19.4414 14.3672 18.4258C14.7031 17.4102 15.1797 16.5508 15.7969 15.8477C16.4219 15.1445 17.168 14.6094 18.0352 14.2422C18.9102 13.875 19.8867 13.6914 20.9648 13.6914C22.4102 13.6914 23.5977 13.9297 24.5273 14.4062C25.4648 14.8828 26.1836 15.5391 26.6836 16.375C27.1836 17.2031 27.4961 18.1562 27.6211 19.2344H24.4805C24.3945 18.6406 24.2227 18.1211 23.9648 17.6758C23.707 17.2227 23.3398 16.8711 22.8633 16.6211C22.3945 16.3633 21.7852 16.2344 21.0352 16.2344C20.4023 16.2344 19.8438 16.3594 19.3594 16.6094C18.875 16.8594 18.4688 17.2227 18.1406 17.6992C17.8125 18.1758 17.5625 18.7656 17.3906 19.4688C17.2266 20.1719 17.1445 20.9766 17.1445 21.8828V23.0312C17.1445 23.9453 17.2383 24.7578 17.4258 25.4688C17.6133 26.1719 17.8828 26.7656 18.2344 27.25C18.5938 27.7266 19.0352 28.0898 19.5586 28.3398C20.0898 28.582 20.6914 28.7031 21.3633 28.7031C21.9727 28.7031 22.4766 28.6523 22.875 28.5508C23.2812 28.4414 23.6055 28.3125 23.8477 28.1641C24.0898 28.0156 24.2773 27.8711 24.4102 27.7305V24.5312H21.0234V22.1758H27.6328ZM36.1406 31.2344C35.1797 31.2344 34.3164 31.0781 33.5508 30.7656C32.7852 30.4531 32.1328 30.0195 31.5938 29.4648C31.0625 28.9023 30.6523 28.25 30.3633 27.5078C30.082 26.7578 29.9414 25.9531 29.9414 25.0938V24.625C29.9414 23.6484 30.082 22.7617 30.3633 21.9648C30.6445 21.1602 31.043 20.4688 31.5586 19.8906C32.0742 19.3125 32.6914 18.8672 33.4102 18.5547C34.1289 18.2422 34.9219 18.0859 35.7891 18.0859C36.6875 18.0859 37.4805 18.2383 38.168 18.543C38.8555 18.8398 39.4297 19.2617 39.8906 19.8086C40.3516 20.3555 40.6992 21.0117 40.9336 21.7773C41.168 22.5352 41.2852 23.375 41.2852 24.2969V25.5977H31.3477V23.4648H38.2383V23.2305C38.2227 22.7383 38.1289 22.2891 37.957 21.8828C37.7852 21.4688 37.5195 21.1406 37.1602 20.8984C36.8008 20.6484 36.3359 20.5234 35.7656 20.5234C35.3047 20.5234 34.9023 20.625 34.5586 20.8281C34.2227 21.0234 33.9414 21.3047 33.7148 21.6719C33.4961 22.0312 33.332 22.4609 33.2227 22.9609C33.1133 23.4609 33.0586 24.0156 33.0586 24.625V25.0938C33.0586 25.625 33.1289 26.1172 33.2695 26.5703C33.418 27.0234 33.6328 27.418 33.9141 27.7539C34.2031 28.082 34.5469 28.3398 34.9453 28.5273C35.3516 28.707 35.8125 28.7969 36.3281 28.7969C36.9766 28.7969 37.5625 28.6719 38.0859 28.4219C38.6172 28.1641 39.0781 27.7852 39.4688 27.2852L41.0273 28.9023C40.7617 29.293 40.4023 29.668 39.9492 30.0273C39.5039 30.3867 38.9648 30.6797 38.332 30.9062C37.6992 31.125 36.9688 31.2344 36.1406 31.2344ZM49.3594 18.3203V20.5469H42.0938V18.3203H49.3594ZM44.0391 15.2031H47.1445V27.3438C47.1445 27.7188 47.1953 28.0078 47.2969 28.2109C47.3984 28.4141 47.5508 28.5508 47.7539 28.6211C47.957 28.6914 48.1992 28.7266 48.4805 28.7266C48.6836 28.7266 48.8711 28.7148 49.043 28.6914C49.2148 28.668 49.3594 28.6445 49.4766 28.6211L49.4883 30.9414C49.2305 31.0273 48.9375 31.0977 48.6094 31.1523C48.2891 31.207 47.9258 31.2344 47.5195 31.2344C46.8242 31.2344 46.2148 31.1172 45.6914 30.8828C45.168 30.6406 44.7617 30.2539 44.4727 29.7227C44.1836 29.1836 44.0391 28.4727 44.0391 27.5898V15.2031ZM71.3438 13.9375V31H68.1094L60.8555 19.1641V31H57.6328V13.9375H60.8555L68.1328 25.7852V13.9375H71.3438ZM73.8398 24.7891V24.543C73.8398 23.6133 73.9727 22.7578 74.2383 21.9766C74.5039 21.1875 74.8906 20.5039 75.3984 19.9258C75.9062 19.3477 76.5273 18.8984 77.2617 18.5781C77.9961 18.25 78.832 18.0859 79.7695 18.0859C80.7227 18.0859 81.5664 18.25 82.3008 18.5781C83.043 18.8984 83.668 19.3477 84.1758 19.9258C84.6836 20.5039 85.0703 21.1875 85.3359 21.9766C85.6016 22.7578 85.7344 23.6133 85.7344 24.543V24.7891C85.7344 25.7109 85.6016 26.5664 85.3359 27.3555C85.0703 28.1367 84.6836 28.8203 84.1758 29.4062C83.668 29.9844 83.0469 30.4336 82.3125 30.7539C81.5781 31.0742 80.7383 31.2344 79.793 31.2344C78.8555 31.2344 78.0156 31.0742 77.2734 30.7539C76.5312 30.4336 75.9062 29.9844 75.3984 29.4062C74.8906 28.8203 74.5039 28.1367 74.2383 27.3555C73.9727 26.5664 73.8398 25.7109 73.8398 24.7891ZM76.9336 24.543V24.7891C76.9336 25.3438 76.9883 25.8633 77.0977 26.3477C77.207 26.832 77.375 27.2578 77.6016 27.625C77.8281 27.9922 78.1211 28.2812 78.4805 28.4922C78.8477 28.6953 79.2852 28.7969 79.793 28.7969C80.293 28.7969 80.7227 28.6953 81.082 28.4922C81.4414 28.2812 81.7344 27.9922 81.9609 27.625C82.1953 27.2578 82.3672 26.832 82.4766 26.3477C82.5859 25.8633 82.6406 25.3438 82.6406 24.7891V24.543C82.6406 23.9961 82.5859 23.4844 82.4766 23.0078C82.3672 22.5234 82.1953 22.0977 81.9609 21.7305C81.7344 21.3555 81.4375 21.0625 81.0703 20.8516C80.7109 20.6328 80.2773 20.5234 79.7695 20.5234C79.2695 20.5234 78.8398 20.6328 78.4805 20.8516C78.1211 21.0625 77.8281 21.3555 77.6016 21.7305C77.375 22.0977 77.207 22.5234 77.0977 23.0078C76.9883 23.4844 76.9336 23.9961 76.9336 24.543ZM91.5117 27.9531L94.2891 18.3203H96.2578L95.6719 21.6484L92.8711 31H91.1719L91.5117 27.9531ZM89.9766 18.3203L92.0625 27.9766L92.25 31H90.293L86.9648 18.3203H89.9766ZM98.8359 27.8359L100.875 18.3203H103.875L100.57 31H98.6133L98.8359 27.8359ZM96.5625 18.3203L99.3164 27.8594L99.6797 31H97.9805L95.1562 21.6484L94.582 18.3203H96.5625Z" fill="#3B762E"/>
<path d="M161 14.9508V30.2666C161 30.2998 161.009 30.3323 161.026 30.3599C161.043 30.3875 161.067 30.409 161.096 30.4218C161.124 30.4346 161.155 30.438 161.185 30.4317C161.215 30.4254 161.243 30.4095 161.265 30.3862L168.619 22.6091L161.265 14.8312C161.243 14.8079 161.215 14.7921 161.185 14.7857C161.155 14.7794 161.124 14.7828 161.096 14.7956C161.067 14.8084 161.043 14.8299 161.026 14.8575C161.009 14.8852 161 14.9176 161 14.9508Z" fill="black"/>
<path d="M171.667 19.5585L162.008 14.0252L162.002 14.0216C161.835 13.9277 161.677 14.1618 161.814 14.298L169.385 21.8261L171.667 19.5585Z" fill="black"/>
<path d="M161.814 31.6722C161.677 31.8221 161.835 32.0795 162.002 31.9762L162.008 31.9723L171.667 25.8863L169.385 23.3913L161.814 31.6722Z" fill="black"/>
<path d="M176.42 21.938L173.578 20.2609L170.905 23.0006L173.578 25.7391L176.42 24.0632C177.193 23.6055 177.193 22.3958 176.42 21.938Z" fill="black"/>
<path fill-rule="evenodd" clip-rule="evenodd" d="M133.669 15.944C134.341 15.1649 134.794 14.0797 134.67 13C133.702 13.0369 132.53 13.6188 131.835 14.397C131.211 15.0876 130.667 16.1911 130.813 17.2496C131.894 17.3298 132.997 16.724 133.669 15.944ZM136.092 22.7967C136.119 25.5877 138.647 26.5162 138.675 26.5282C138.654 26.5936 138.271 27.8511 137.343 29.1511C136.541 30.2742 135.708 31.3927 134.396 31.4166C133.108 31.4397 132.693 30.6846 131.219 30.6846C129.745 30.6846 129.285 31.3926 128.065 31.4396C126.799 31.4848 125.834 30.2246 125.026 29.1052C123.372 26.8158 122.108 22.6355 123.805 19.8141C124.648 18.4135 126.154 17.5252 127.789 17.5031C129.032 17.48 130.206 18.3045 130.966 18.3045C131.726 18.3045 133.152 17.3133 134.652 17.459C135.279 17.4839 137.041 17.7014 138.172 19.2882C138.081 19.3426 136.07 20.464 136.092 22.7967Z" fill="black"/>
<path d="M149.75 33.0031V12.9969" stroke="black" stroke-opacity="0.54" stroke-width="2" stroke-linecap="round"/>
</svg>
