<svg width="13" height="13" viewBox="0 0 13 13" fill="none" xmlns="http://www.w3.org/2000/svg">
<path d="M9.75061 8.17882C10.0062 8.1808 10.215 7.97524 10.217 7.71961L10.2533 3.02589C10.2534 3.00994 10.2527 2.99398 10.2512 2.97802C10.2508 2.97311 10.2498 2.9684 10.2492 2.96328C10.2479 2.95325 10.2467 2.94342 10.245 2.93339C10.2436 2.92622 10.2416 2.91925 10.24 2.91228C10.2382 2.9047 10.2365 2.89712 10.2343 2.88954C10.2321 2.88195 10.2295 2.87478 10.2267 2.86739C10.2243 2.86042 10.2221 2.85365 10.2195 2.84688C10.2165 2.83929 10.2128 2.83231 10.2094 2.82513C10.2064 2.81876 10.2036 2.8122 10.2003 2.80604C10.1963 2.79824 10.1917 2.79104 10.1874 2.78385C10.184 2.7783 10.181 2.77276 10.1775 2.76721C10.1715 2.75775 10.1648 2.74891 10.1579 2.74027C10.1555 2.73697 10.1533 2.73389 10.1508 2.7306C10.1314 2.70632 10.1095 2.68406 10.0855 2.66424C10.0841 2.66321 10.0826 2.66217 10.0812 2.66114C10.0708 2.65267 10.0601 2.64461 10.0491 2.63717C10.0458 2.6351 10.0424 2.63323 10.0391 2.63116C10.0295 2.62515 10.02 2.61915 10.0102 2.61376C10.0067 2.61189 10.0031 2.61023 9.9992 2.60835C9.98942 2.60337 9.97924 2.59838 9.96884 2.59401C9.96558 2.59276 9.96252 2.59171 9.95925 2.59046C9.94824 2.58628 9.93723 2.58211 9.92601 2.57854C9.92377 2.57791 9.92132 2.57748 9.91907 2.57685C9.90703 2.57328 9.89458 2.57012 9.88213 2.56736C9.88111 2.56715 9.88008 2.56694 9.87906 2.56673C9.85129 2.5612 9.82268 2.55811 9.79365 2.55789L5.09788 2.52159C4.97027 2.5206 4.85392 2.57145 4.76963 2.65444C4.68534 2.73744 4.6325 2.85278 4.63172 2.9806C4.62975 3.23623 4.8353 3.44499 5.09093 3.44696L8.66971 3.47462L2.65994 9.3922C2.47776 9.57159 2.4755 9.86443 2.65488 10.0466C2.83426 10.2288 3.12711 10.231 3.30929 10.0517L9.31906 4.13409L9.2916 7.71266C9.28942 7.96808 9.49498 8.17685 9.75061 8.17882Z" fill="#D8E9A8"/>
</svg>
