<svg width="80" height="32" viewBox="0 0 80 32" fill="none" xmlns="http://www.w3.org/2000/svg">
<rect width="80" height="32" rx="6" fill="#D8E9A8"/>
<path d="M25.3789 16.8184H23.1582V15.6523H25.3789C25.7656 15.6523 26.0781 15.5898 26.3164 15.4648C26.5547 15.3398 26.7285 15.168 26.8379 14.9492C26.9512 14.7266 27.0078 14.4727 27.0078 14.1875C27.0078 13.918 26.9512 13.666 26.8379 13.4316C26.7285 13.1934 26.5547 13.002 26.3164 12.8574C26.0781 12.7129 25.7656 12.6406 25.3789 12.6406H23.6094V20H22.1387V11.4688H25.3789C26.0391 11.4688 26.5996 11.5859 27.0605 11.8203C27.5254 12.0508 27.8789 12.3711 28.1211 12.7812C28.3633 13.1875 28.4844 13.6523 28.4844 14.1758C28.4844 14.7266 28.3633 15.1992 28.1211 15.5938C27.8789 15.9883 27.5254 16.291 27.0605 16.502C26.5996 16.7129 26.0391 16.8184 25.3789 16.8184ZM31.1738 11V20H29.7559V11H31.1738ZM36.2949 18.7285V15.7051C36.2949 15.4785 36.2539 15.2832 36.1719 15.1191C36.0898 14.9551 35.9648 14.8281 35.7969 14.7383C35.6328 14.6484 35.4258 14.6035 35.1758 14.6035C34.9453 14.6035 34.7461 14.6426 34.5781 14.7207C34.4102 14.7988 34.2793 14.9043 34.1855 15.0371C34.0918 15.1699 34.0449 15.3203 34.0449 15.4883H32.6387C32.6387 15.2383 32.6992 14.9961 32.8203 14.7617C32.9414 14.5273 33.1172 14.3184 33.3477 14.1348C33.5781 13.9512 33.8535 13.8066 34.1738 13.7012C34.4941 13.5957 34.8535 13.543 35.252 13.543C35.7285 13.543 36.1504 13.623 36.5176 13.7832C36.8887 13.9434 37.1797 14.1855 37.3906 14.5098C37.6055 14.8301 37.7129 15.2324 37.7129 15.7168V18.5352C37.7129 18.8242 37.7324 19.084 37.7715 19.3145C37.8145 19.541 37.875 19.7383 37.9531 19.9062V20H36.5059C36.4395 19.8477 36.3867 19.6543 36.3477 19.4199C36.3125 19.1816 36.2949 18.9512 36.2949 18.7285ZM36.5 16.1445L36.5117 17.0176H35.498C35.2363 17.0176 35.0059 17.043 34.8066 17.0938C34.6074 17.1406 34.4414 17.2109 34.3086 17.3047C34.1758 17.3984 34.0762 17.5117 34.0098 17.6445C33.9434 17.7773 33.9102 17.9277 33.9102 18.0957C33.9102 18.2637 33.9492 18.418 34.0273 18.5586C34.1055 18.6953 34.2188 18.8027 34.3672 18.8809C34.5195 18.959 34.7031 18.998 34.918 18.998C35.207 18.998 35.459 18.9395 35.6738 18.8223C35.8926 18.7012 36.0645 18.5547 36.1895 18.3828C36.3145 18.207 36.3809 18.041 36.3887 17.8848L36.8457 18.5117C36.7988 18.6719 36.7188 18.8438 36.6055 19.0273C36.4922 19.2109 36.3438 19.3867 36.1602 19.5547C35.9805 19.7188 35.7637 19.8535 35.5098 19.959C35.2598 20.0645 34.9707 20.1172 34.6426 20.1172C34.2285 20.1172 33.8594 20.0352 33.5352 19.8711C33.2109 19.7031 32.957 19.4785 32.7734 19.1973C32.5898 18.9121 32.498 18.5898 32.498 18.2305C32.498 17.8945 32.5605 17.5977 32.6855 17.3398C32.8145 17.0781 33.002 16.8594 33.248 16.6836C33.498 16.5078 33.8027 16.375 34.1621 16.2852C34.5215 16.1914 34.9316 16.1445 35.3926 16.1445H36.5ZM40.9355 19.3086L42.6582 13.6602H44.1699L41.627 20.9668C41.5684 21.123 41.4922 21.293 41.3984 21.4766C41.3047 21.6602 41.1816 21.834 41.0293 21.998C40.8809 22.166 40.6953 22.3008 40.4727 22.4023C40.25 22.5078 39.9805 22.5605 39.6641 22.5605C39.5391 22.5605 39.418 22.5488 39.3008 22.5254C39.1875 22.5059 39.0801 22.4844 38.9785 22.4609L38.9727 21.3828C39.0117 21.3867 39.0586 21.3906 39.1133 21.3945C39.1719 21.3984 39.2188 21.4004 39.2539 21.4004C39.4883 21.4004 39.6836 21.3711 39.8398 21.3125C39.9961 21.2578 40.123 21.168 40.2207 21.043C40.3223 20.918 40.4082 20.75 40.4785 20.5391L40.9355 19.3086ZM39.9629 13.6602L41.4688 18.4062L41.7207 19.8945L40.7422 20.1465L38.4395 13.6602H39.9629ZM52.5957 17.8027C52.5957 17.627 52.5684 17.4707 52.5137 17.334C52.4629 17.1973 52.3711 17.0723 52.2383 16.959C52.1055 16.8457 51.918 16.7363 51.6758 16.6309C51.4375 16.5215 51.1328 16.4102 50.7617 16.2969C50.3555 16.1719 49.9805 16.0332 49.6367 15.8809C49.2969 15.7246 49 15.5449 48.7461 15.3418C48.4922 15.1348 48.2949 14.8984 48.1543 14.6328C48.0137 14.3633 47.9434 14.0527 47.9434 13.7012C47.9434 13.3535 48.0156 13.0371 48.1602 12.752C48.3086 12.4668 48.5176 12.2207 48.7871 12.0137C49.0605 11.8027 49.3828 11.6406 49.7539 11.5273C50.125 11.4102 50.5352 11.3516 50.9844 11.3516C51.6172 11.3516 52.1621 11.4688 52.6191 11.7031C53.0801 11.9375 53.4336 12.252 53.6797 12.6465C53.9297 13.041 54.0547 13.4766 54.0547 13.9531H52.5957C52.5957 13.6719 52.5352 13.4238 52.4141 13.209C52.2969 12.9902 52.1172 12.8184 51.875 12.6934C51.6367 12.5684 51.334 12.5059 50.9668 12.5059C50.6191 12.5059 50.3301 12.5586 50.0996 12.6641C49.8691 12.7695 49.6973 12.9121 49.584 13.0918C49.4707 13.2715 49.4141 13.4746 49.4141 13.7012C49.4141 13.8613 49.4512 14.0078 49.5254 14.1406C49.5996 14.2695 49.7129 14.3906 49.8652 14.5039C50.0176 14.6133 50.209 14.7168 50.4395 14.8145C50.6699 14.9121 50.9414 15.0059 51.2539 15.0957C51.7266 15.2363 52.1387 15.3926 52.4902 15.5645C52.8418 15.7324 53.1348 15.9238 53.3691 16.1387C53.6035 16.3535 53.7793 16.5977 53.8965 16.8711C54.0137 17.1406 54.0723 17.4473 54.0723 17.791C54.0723 18.1504 54 18.4746 53.8555 18.7637C53.7109 19.0488 53.5039 19.293 53.2344 19.4961C52.9688 19.6953 52.6484 19.8496 52.2734 19.959C51.9023 20.0645 51.4883 20.1172 51.0312 20.1172C50.6211 20.1172 50.2168 20.0625 49.8184 19.9531C49.4238 19.8438 49.0645 19.6777 48.7402 19.4551C48.416 19.2285 48.1582 18.9473 47.9668 18.6113C47.7754 18.2715 47.6797 17.875 47.6797 17.4219H49.1504C49.1504 17.6992 49.1973 17.9355 49.291 18.1309C49.3887 18.3262 49.5234 18.4863 49.6953 18.6113C49.8672 18.7324 50.0664 18.8223 50.293 18.8809C50.5234 18.9395 50.7695 18.9688 51.0312 18.9688C51.375 18.9688 51.6621 18.9199 51.8926 18.8223C52.127 18.7246 52.3027 18.5879 52.4199 18.4121C52.5371 18.2363 52.5957 18.0332 52.5957 17.8027ZM58.1387 13.6602V14.6914H54.5645V13.6602H58.1387ZM55.5957 12.1074H57.0078V18.248C57.0078 18.4434 57.0352 18.5938 57.0898 18.6992C57.1484 18.8008 57.2285 18.8691 57.3301 18.9043C57.4316 18.9395 57.5508 18.957 57.6875 18.957C57.7852 18.957 57.8789 18.9512 57.9688 18.9395C58.0586 18.9277 58.1309 18.916 58.1855 18.9043L58.1914 19.9824C58.0742 20.0176 57.9375 20.0488 57.7812 20.0762C57.6289 20.1035 57.4531 20.1172 57.2539 20.1172C56.9297 20.1172 56.6426 20.0605 56.3926 19.9473C56.1426 19.8301 55.9473 19.6406 55.8066 19.3789C55.666 19.1172 55.5957 18.7695 55.5957 18.3359V12.1074ZM58.8184 16.9004V16.7656C58.8184 16.3086 58.8848 15.8848 59.0176 15.4941C59.1504 15.0996 59.3418 14.7578 59.5918 14.4688C59.8457 14.1758 60.1543 13.9492 60.5176 13.7891C60.8848 13.625 61.2988 13.543 61.7598 13.543C62.2246 13.543 62.6387 13.625 63.002 13.7891C63.3691 13.9492 63.6797 14.1758 63.9336 14.4688C64.1875 14.7578 64.3809 15.0996 64.5137 15.4941C64.6465 15.8848 64.7129 16.3086 64.7129 16.7656V16.9004C64.7129 17.3574 64.6465 17.7812 64.5137 18.1719C64.3809 18.5625 64.1875 18.9043 63.9336 19.1973C63.6797 19.4863 63.3711 19.7129 63.0078 19.877C62.6445 20.0371 62.2324 20.1172 61.7715 20.1172C61.3066 20.1172 60.8906 20.0371 60.5234 19.877C60.1602 19.7129 59.8516 19.4863 59.5977 19.1973C59.3438 18.9043 59.1504 18.5625 59.0176 18.1719C58.8848 17.7812 58.8184 17.3574 58.8184 16.9004ZM60.2305 16.7656V16.9004C60.2305 17.1855 60.2598 17.4551 60.3184 17.709C60.377 17.9629 60.4688 18.1855 60.5938 18.377C60.7188 18.5684 60.8789 18.7188 61.0742 18.8281C61.2695 18.9375 61.502 18.9922 61.7715 18.9922C62.0332 18.9922 62.2598 18.9375 62.4512 18.8281C62.6465 18.7188 62.8066 18.5684 62.9316 18.377C63.0566 18.1855 63.1484 17.9629 63.207 17.709C63.2695 17.4551 63.3008 17.1855 63.3008 16.9004V16.7656C63.3008 16.4844 63.2695 16.2188 63.207 15.9688C63.1484 15.7148 63.0547 15.4902 62.9258 15.2949C62.8008 15.0996 62.6406 14.9473 62.4453 14.8379C62.2539 14.7246 62.0254 14.668 61.7598 14.668C61.4941 14.668 61.2637 14.7246 61.0684 14.8379C60.877 14.9473 60.7188 15.0996 60.5938 15.2949C60.4688 15.4902 60.377 15.7148 60.3184 15.9688C60.2598 16.2188 60.2305 16.4844 60.2305 16.7656ZM67.3145 14.8672V20H65.9023V13.6602H67.25L67.3145 14.8672ZM69.2539 13.6191L69.2422 14.9316C69.1562 14.916 69.0625 14.9043 68.9609 14.8965C68.8633 14.8887 68.7656 14.8848 68.668 14.8848C68.4258 14.8848 68.2129 14.9199 68.0293 14.9902C67.8457 15.0566 67.6914 15.1543 67.5664 15.2832C67.4453 15.4082 67.3516 15.5605 67.2852 15.7402C67.2188 15.9199 67.1797 16.1211 67.168 16.3438L66.8457 16.3672C66.8457 15.9688 66.8848 15.5996 66.9629 15.2598C67.041 14.9199 67.1582 14.6211 67.3145 14.3633C67.4746 14.1055 67.6738 13.9043 67.9121 13.7598C68.1543 13.6152 68.4336 13.543 68.75 13.543C68.8359 13.543 68.9277 13.5508 69.0254 13.5664C69.127 13.582 69.2031 13.5996 69.2539 13.6191ZM72.8164 20.1172C72.3477 20.1172 71.9238 20.041 71.5449 19.8887C71.1699 19.7324 70.8496 19.5156 70.584 19.2383C70.3223 18.9609 70.1211 18.6348 69.9805 18.2598C69.8398 17.8848 69.7695 17.4805 69.7695 17.0469V16.8125C69.7695 16.3164 69.8418 15.8672 69.9863 15.4648C70.1309 15.0625 70.332 14.7188 70.5898 14.4336C70.8477 14.1445 71.1523 13.9238 71.5039 13.7715C71.8555 13.6191 72.2363 13.543 72.6465 13.543C73.0996 13.543 73.4961 13.6191 73.8359 13.7715C74.1758 13.9238 74.457 14.1387 74.6797 14.416C74.9062 14.6895 75.0742 15.0156 75.1836 15.3945C75.2969 15.7734 75.3535 16.1914 75.3535 16.6484V17.252H70.4551V16.2383H73.959V16.127C73.9512 15.873 73.9004 15.6348 73.8066 15.4121C73.7168 15.1895 73.5781 15.0098 73.3906 14.873C73.2031 14.7363 72.9531 14.668 72.6406 14.668C72.4062 14.668 72.1973 14.7188 72.0137 14.8203C71.834 14.918 71.6836 15.0605 71.5625 15.248C71.4414 15.4355 71.3477 15.6621 71.2812 15.9277C71.2188 16.1895 71.1875 16.4844 71.1875 16.8125V17.0469C71.1875 17.3242 71.2246 17.582 71.2988 17.8203C71.377 18.0547 71.4902 18.2598 71.6387 18.4355C71.7871 18.6113 71.9668 18.75 72.1777 18.8516C72.3887 18.9492 72.6289 18.998 72.8984 18.998C73.2383 18.998 73.541 18.9297 73.8066 18.793C74.0723 18.6562 74.3027 18.4629 74.498 18.2129L75.2422 18.9336C75.1055 19.1328 74.9277 19.3242 74.709 19.5078C74.4902 19.6875 74.2227 19.834 73.9062 19.9473C73.5938 20.0605 73.2305 20.1172 72.8164 20.1172Z" fill="black"/>
<path d="M6 10.6339V20.8444C6.00007 20.8665 6.00635 20.8882 6.01806 20.9066C6.02978 20.925 6.0464 20.9394 6.06585 20.9479C6.08529 20.9564 6.1067 20.9587 6.12738 20.9545C6.14806 20.9502 6.1671 20.9397 6.1821 20.9241L11.2381 15.7394L6.1821 10.5541C6.1671 10.5386 6.14806 10.528 6.12738 10.5238C6.1067 10.5196 6.08529 10.5219 6.06585 10.5304C6.0464 10.5389 6.02978 10.5533 6.01806 10.5717C6.00635 10.5901 6.00007 10.6117 6 10.6339Z" fill="black"/>
<path d="M13.3334 13.7057L6.69298 10.0168L6.68883 10.0144C6.57444 9.9518 6.46574 10.1079 6.55943 10.1987L11.7648 15.2174L13.3334 13.7057Z" fill="black"/>
<path d="M6.55974 21.7815C6.46553 21.8814 6.57423 22.053 6.68914 21.9841L6.69328 21.9815L13.3335 17.9242L11.7648 16.2609L6.55974 21.7815Z" fill="black"/>
<path d="M16.6014 15.292L14.6471 14.1739L12.8096 16.0004L14.6471 17.8261L16.6014 16.7088C17.1329 16.4036 17.1329 15.5972 16.6014 15.292Z" fill="black"/>
</svg>
