<svg width="479" height="125" viewBox="0 0 479 125" fill="none" xmlns="http://www.w3.org/2000/svg">
<path d="M26.7812 3.5H35.375V33.7188C35.375 37.1979 34.625 40.125 33.125 42.5C31.625 44.8542 29.5833 46.6354 27 47.8438C24.4167 49.0312 21.4792 49.625 18.1875 49.625C14.8542 49.625 11.8854 49.0312 9.28125 47.8438C6.67708 46.6354 4.63542 44.8542 3.15625 42.5C1.67708 40.125 0.9375 37.1979 0.9375 33.7188V3.5H9.53125V33.7188C9.53125 35.8438 9.88542 37.5833 10.5938 38.9375C11.3021 40.2708 12.3021 41.2604 13.5938 41.9062C14.8854 42.5521 16.4167 42.875 18.1875 42.875C19.9792 42.875 21.5104 42.5521 22.7812 41.9062C24.0729 41.2604 25.0625 40.2708 25.75 38.9375C26.4375 37.5833 26.7812 35.8438 26.7812 33.7188V3.5ZM51 22.4062V49H42.75V15.1875H50.5L51 22.4062ZM49.6875 30.875H47.25C47.2708 28.4167 47.6042 26.1875 48.25 24.1875C48.8958 22.1875 49.8021 20.4688 50.9688 19.0312C52.1562 17.5938 53.5625 16.4896 55.1875 15.7188C56.8125 14.9479 58.625 14.5625 60.625 14.5625C62.25 14.5625 63.7188 14.7917 65.0312 15.25C66.3438 15.7083 67.4688 16.4375 68.4062 17.4375C69.3646 18.4375 70.0938 19.75 70.5938 21.375C71.1146 22.9792 71.375 24.9583 71.375 27.3125V49H63.0625V27.25C63.0625 25.7083 62.8333 24.4896 62.375 23.5938C61.9375 22.6979 61.2917 22.0625 60.4375 21.6875C59.6042 21.3125 58.5729 21.125 57.3438 21.125C56.0729 21.125 54.9583 21.3854 54 21.9062C53.0625 22.4062 52.2708 23.1042 51.625 24C51 24.8958 50.5208 25.9271 50.1875 27.0938C49.8542 28.2604 49.6875 29.5208 49.6875 30.875ZM87.4062 1V49H79.125V1H87.4062ZM93.8125 32.4375V31.7812C93.8125 29.3021 94.1667 27.0208 94.875 24.9375C95.5833 22.8333 96.6146 21.0104 97.9688 19.4688C99.3229 17.9271 100.979 16.7292 102.938 15.875C104.896 15 107.125 14.5625 109.625 14.5625C112.167 14.5625 114.417 15 116.375 15.875C118.354 16.7292 120.021 17.9271 121.375 19.4688C122.729 21.0104 123.76 22.8333 124.469 24.9375C125.177 27.0208 125.531 29.3021 125.531 31.7812V32.4375C125.531 34.8958 125.177 37.1771 124.469 39.2812C123.76 41.3646 122.729 43.1875 121.375 44.75C120.021 46.2917 118.365 47.4896 116.406 48.3438C114.448 49.1979 112.208 49.625 109.688 49.625C107.188 49.625 104.948 49.1979 102.969 48.3438C100.99 47.4896 99.3229 46.2917 97.9688 44.75C96.6146 43.1875 95.5833 41.3646 94.875 39.2812C94.1667 37.1771 93.8125 34.8958 93.8125 32.4375ZM102.062 31.7812V32.4375C102.062 33.9167 102.208 35.3021 102.5 36.5938C102.792 37.8854 103.24 39.0208 103.844 40C104.448 40.9792 105.229 41.75 106.188 42.3125C107.167 42.8542 108.333 43.125 109.688 43.125C111.021 43.125 112.167 42.8542 113.125 42.3125C114.083 41.75 114.865 40.9792 115.469 40C116.094 39.0208 116.552 37.8854 116.844 36.5938C117.135 35.3021 117.281 33.9167 117.281 32.4375V31.7812C117.281 30.3229 117.135 28.9583 116.844 27.6875C116.552 26.3958 116.094 25.2604 115.469 24.2812C114.865 23.2812 114.073 22.5 113.094 21.9375C112.135 21.3542 110.979 21.0625 109.625 21.0625C108.292 21.0625 107.146 21.3542 106.188 21.9375C105.229 22.5 104.448 23.2812 103.844 24.2812C103.24 25.2604 102.792 26.3958 102.5 27.6875C102.208 28.9583 102.062 30.3229 102.062 31.7812ZM145.406 43.125C146.573 43.125 147.615 42.8958 148.531 42.4375C149.448 41.9792 150.177 41.3333 150.719 40.5C151.281 39.6667 151.583 38.6979 151.625 37.5938H159.406C159.365 39.8854 158.719 41.9375 157.469 43.75C156.219 45.5625 154.552 47 152.469 48.0625C150.406 49.1042 148.094 49.625 145.531 49.625C142.927 49.625 140.656 49.1875 138.719 48.3125C136.781 47.4375 135.167 46.2188 133.875 44.6562C132.604 43.0938 131.646 41.2812 131 39.2188C130.375 37.1562 130.062 34.9479 130.062 32.5938V31.5938C130.062 29.2396 130.375 27.0312 131 24.9688C131.646 22.9062 132.604 21.0938 133.875 19.5312C135.167 17.9688 136.781 16.75 138.719 15.875C140.656 15 142.917 14.5625 145.5 14.5625C148.229 14.5625 150.625 15.0938 152.688 16.1562C154.771 17.2188 156.396 18.7188 157.562 20.6562C158.75 22.5938 159.365 24.875 159.406 27.5H151.625C151.583 26.2917 151.312 25.2083 150.812 24.25C150.312 23.2917 149.604 22.5208 148.688 21.9375C147.771 21.3542 146.656 21.0625 145.344 21.0625C143.948 21.0625 142.781 21.3542 141.844 21.9375C140.927 22.5208 140.208 23.3229 139.688 24.3438C139.188 25.3438 138.833 26.4688 138.625 27.7188C138.438 28.9479 138.344 30.2396 138.344 31.5938V32.5938C138.344 33.9688 138.438 35.2812 138.625 36.5312C138.833 37.7812 139.188 38.9062 139.688 39.9062C140.208 40.8854 140.927 41.6667 141.844 42.25C142.781 42.8333 143.969 43.125 145.406 43.125ZM173.156 0.96875V49H164.906V0.96875H173.156ZM194.344 15.1875L179.625 31.7188L171.656 39.8125L169.031 33.4062L175.188 25.6562L184.375 15.1875H194.344ZM185.906 49L175.438 33.25L180.938 27.9062L195.469 49H185.906ZM230.656 15.1875V21.125H211.281V15.1875H230.656ZM216.469 6.875H224.75V39.25C224.75 40.25 224.885 41.0208 225.156 41.5625C225.427 42.1042 225.833 42.4688 226.375 42.6562C226.917 42.8438 227.562 42.9375 228.312 42.9375C228.854 42.9375 229.354 42.9062 229.812 42.8438C230.271 42.7812 230.656 42.7188 230.969 42.6562L231 48.8438C230.312 49.0729 229.531 49.2604 228.656 49.4062C227.802 49.5521 226.833 49.625 225.75 49.625C223.896 49.625 222.271 49.3125 220.875 48.6875C219.479 48.0417 218.396 47.0104 217.625 45.5938C216.854 44.1562 216.469 42.2604 216.469 39.9062V6.875ZM244.25 1V49H235.969V1H244.25ZM242.938 30.875H240.5C240.5 28.5208 240.812 26.3542 241.438 24.375C242.062 22.3958 242.948 20.6771 244.094 19.2188C245.24 17.7396 246.604 16.5938 248.188 15.7812C249.792 14.9688 251.562 14.5625 253.5 14.5625C255.167 14.5625 256.677 14.8021 258.031 15.2812C259.406 15.7396 260.583 16.4792 261.562 17.5C262.542 18.5208 263.292 19.8542 263.812 21.5C264.354 23.125 264.625 25.1042 264.625 27.4375V49H256.312V27.375C256.312 25.8125 256.083 24.5833 255.625 23.6875C255.167 22.7708 254.51 22.1146 253.656 21.7188C252.823 21.3229 251.792 21.125 250.562 21.125C249.229 21.125 248.083 21.3854 247.125 21.9062C246.167 22.4062 245.375 23.1042 244.75 24C244.146 24.8958 243.688 25.9271 243.375 27.0938C243.083 28.2604 242.938 29.5208 242.938 30.875ZM287.094 49.625C284.531 49.625 282.229 49.2083 280.188 48.375C278.146 47.5417 276.406 46.3854 274.969 44.9062C273.552 43.4062 272.458 41.6667 271.688 39.6875C270.938 37.6875 270.562 35.5417 270.562 33.25V32C270.562 29.3958 270.938 27.0312 271.688 24.9062C272.438 22.7604 273.5 20.9167 274.875 19.375C276.25 17.8333 277.896 16.6458 279.812 15.8125C281.729 14.9792 283.844 14.5625 286.156 14.5625C288.552 14.5625 290.667 14.9688 292.5 15.7812C294.333 16.5729 295.865 17.6979 297.094 19.1562C298.323 20.6146 299.25 22.3646 299.875 24.4062C300.5 26.4271 300.812 28.6667 300.812 31.125V34.5938H274.312V28.9062H292.688V28.2812C292.646 26.9688 292.396 25.7708 291.938 24.6875C291.479 23.5833 290.771 22.7083 289.812 22.0625C288.854 21.3958 287.615 21.0625 286.094 21.0625C284.865 21.0625 283.792 21.3333 282.875 21.875C281.979 22.3958 281.229 23.1458 280.625 24.125C280.042 25.0833 279.604 26.2292 279.312 27.5625C279.021 28.8958 278.875 30.375 278.875 32V33.25C278.875 34.6667 279.062 35.9792 279.438 37.1875C279.833 38.3958 280.406 39.4479 281.156 40.3438C281.927 41.2188 282.844 41.9062 283.906 42.4062C284.99 42.8854 286.219 43.125 287.594 43.125C289.323 43.125 290.885 42.7917 292.281 42.125C293.698 41.4375 294.927 40.4271 295.969 39.0938L300.125 43.4062C299.417 44.4479 298.458 45.4479 297.25 46.4062C296.062 47.3646 294.625 48.1458 292.938 48.75C291.25 49.3333 289.302 49.625 287.094 49.625ZM338.906 40.0938L350.25 3.5H359.781L343.719 49H337.375L338.906 40.0938ZM328.438 3.5L339.719 40.0938L341.344 49H334.938L318.938 3.5H328.438ZM381.031 41.8125V26.2188C381.031 25.0729 380.833 24.0833 380.438 23.25C380.042 22.4167 379.438 21.7708 378.625 21.3125C377.812 20.8542 376.781 20.625 375.531 20.625C374.427 20.625 373.458 20.8125 372.625 21.1875C371.812 21.5625 371.188 22.0938 370.75 22.7812C370.312 23.4479 370.094 24.2188 370.094 25.0938H361.812C361.812 23.6979 362.146 22.375 362.812 21.125C363.479 19.8542 364.427 18.7292 365.656 17.75C366.906 16.75 368.396 15.9688 370.125 15.4062C371.875 14.8438 373.833 14.5625 376 14.5625C378.562 14.5625 380.844 15 382.844 15.875C384.865 16.7292 386.448 18.0208 387.594 19.75C388.76 21.4792 389.344 23.6562 389.344 26.2812V41.0312C389.344 42.7188 389.448 44.1667 389.656 45.375C389.885 46.5625 390.219 47.5938 390.656 48.4688V49H382.25C381.854 48.1458 381.552 47.0625 381.344 45.75C381.135 44.4167 381.031 43.1042 381.031 41.8125ZM382.188 28.4062L382.25 33.3125H377.031C375.74 33.3125 374.604 33.4479 373.625 33.7188C372.646 33.9688 371.844 34.3438 371.219 34.8438C370.594 35.3229 370.125 35.9062 369.812 36.5938C369.5 37.2604 369.344 38.0208 369.344 38.875C369.344 39.7083 369.531 40.4583 369.906 41.125C370.302 41.7917 370.865 42.3229 371.594 42.7188C372.344 43.0938 373.219 43.2812 374.219 43.2812C375.677 43.2812 376.948 42.9896 378.031 42.4062C379.115 41.8021 379.958 41.0729 380.562 40.2188C381.167 39.3646 381.49 38.5521 381.531 37.7812L383.906 41.3438C383.615 42.1979 383.177 43.1042 382.594 44.0625C382.01 45.0208 381.26 45.9167 380.344 46.75C379.427 47.5833 378.323 48.2708 377.031 48.8125C375.74 49.3542 374.24 49.625 372.531 49.625C370.344 49.625 368.385 49.1875 366.656 48.3125C364.927 47.4375 363.562 46.2396 362.562 44.7188C361.562 43.1979 361.062 41.4688 361.062 39.5312C361.062 37.7396 361.396 36.1562 362.062 34.7812C362.729 33.4062 363.719 32.25 365.031 31.3125C366.344 30.3542 367.969 29.6354 369.906 29.1562C371.865 28.6562 374.104 28.4062 376.625 28.4062H382.188ZM405.531 1V49H397.25V1H405.531ZM433.531 40.9688V15.1875H441.844V49H434.031L433.531 40.9688ZM434.594 33.9688L437.156 33.9062C437.156 36.1771 436.906 38.2708 436.406 40.1875C435.906 42.1042 435.125 43.7708 434.062 45.1875C433.021 46.5833 431.698 47.6771 430.094 48.4688C428.49 49.2396 426.594 49.625 424.406 49.625C422.74 49.625 421.219 49.3958 419.844 48.9375C418.469 48.4583 417.281 47.7188 416.281 46.7188C415.302 45.6979 414.542 44.3958 414 42.8125C413.458 41.2083 413.188 39.2812 413.188 37.0312V15.1875H421.438V37.0938C421.438 38.2188 421.562 39.1562 421.812 39.9062C422.083 40.6562 422.448 41.2708 422.906 41.75C423.385 42.2083 423.938 42.5417 424.562 42.75C425.208 42.9375 425.896 43.0312 426.625 43.0312C428.625 43.0312 430.198 42.6354 431.344 41.8438C432.51 41.0312 433.344 39.9479 433.844 38.5938C434.344 37.2188 434.594 35.6771 434.594 33.9688ZM464.344 49.625C461.781 49.625 459.479 49.2083 457.438 48.375C455.396 47.5417 453.656 46.3854 452.219 44.9062C450.802 43.4062 449.708 41.6667 448.938 39.6875C448.188 37.6875 447.812 35.5417 447.812 33.25V32C447.812 29.3958 448.188 27.0312 448.938 24.9062C449.688 22.7604 450.75 20.9167 452.125 19.375C453.5 17.8333 455.146 16.6458 457.062 15.8125C458.979 14.9792 461.094 14.5625 463.406 14.5625C465.802 14.5625 467.917 14.9688 469.75 15.7812C471.583 16.5729 473.115 17.6979 474.344 19.1562C475.573 20.6146 476.5 22.3646 477.125 24.4062C477.75 26.4271 478.062 28.6667 478.062 31.125V34.5938H451.562V28.9062H469.938V28.2812C469.896 26.9688 469.646 25.7708 469.188 24.6875C468.729 23.5833 468.021 22.7083 467.062 22.0625C466.104 21.3958 464.865 21.0625 463.344 21.0625C462.115 21.0625 461.042 21.3333 460.125 21.875C459.229 22.3958 458.479 23.1458 457.875 24.125C457.292 25.0833 456.854 26.2292 456.562 27.5625C456.271 28.8958 456.125 30.375 456.125 32V33.25C456.125 34.6667 456.312 35.9792 456.688 37.1875C457.083 38.3958 457.656 39.4479 458.406 40.3438C459.177 41.2188 460.094 41.9062 461.156 42.4062C462.24 42.8854 463.469 43.125 464.844 43.125C466.573 43.125 468.135 42.7917 469.531 42.125C470.948 41.4375 472.177 40.4271 473.219 39.0938L477.375 43.4062C476.667 44.4479 475.708 45.4479 474.5 46.4062C473.312 47.3646 471.875 48.1458 470.188 48.75C468.5 49.3333 466.552 49.625 464.344 49.625ZM63.1562 107.438V106.781C63.1562 104.302 63.5104 102.021 64.2188 99.9375C64.9271 97.8333 65.9583 96.0104 67.3125 94.4688C68.6667 92.9271 70.3229 91.7292 72.2812 90.875C74.2396 90 76.4688 89.5625 78.9688 89.5625C81.5104 89.5625 83.7604 90 85.7188 90.875C87.6979 91.7292 89.3646 92.9271 90.7188 94.4688C92.0729 96.0104 93.1042 97.8333 93.8125 99.9375C94.5208 102.021 94.875 104.302 94.875 106.781V107.438C94.875 109.896 94.5208 112.177 93.8125 114.281C93.1042 116.365 92.0729 118.188 90.7188 119.75C89.3646 121.292 87.7083 122.49 85.75 123.344C83.7917 124.198 81.5521 124.625 79.0312 124.625C76.5312 124.625 74.2917 124.198 72.3125 123.344C70.3333 122.49 68.6667 121.292 67.3125 119.75C65.9583 118.188 64.9271 116.365 64.2188 114.281C63.5104 112.177 63.1562 109.896 63.1562 107.438ZM71.4062 106.781V107.438C71.4062 108.917 71.5521 110.302 71.8438 111.594C72.1354 112.885 72.5833 114.021 73.1875 115C73.7917 115.979 74.5729 116.75 75.5312 117.312C76.5104 117.854 77.6771 118.125 79.0312 118.125C80.3646 118.125 81.5104 117.854 82.4688 117.312C83.4271 116.75 84.2083 115.979 84.8125 115C85.4375 114.021 85.8958 112.885 86.1875 111.594C86.4792 110.302 86.625 108.917 86.625 107.438V106.781C86.625 105.323 86.4792 103.958 86.1875 102.688C85.8958 101.396 85.4375 100.26 84.8125 99.2812C84.2083 98.2812 83.4167 97.5 82.4375 96.9375C81.4792 96.3542 80.3229 96.0625 78.9688 96.0625C77.6354 96.0625 76.4896 96.3542 75.5312 96.9375C74.5729 97.5 73.7917 98.2812 73.1875 99.2812C72.5833 100.26 72.1354 101.396 71.8438 102.688C71.5521 103.958 71.4062 105.323 71.4062 106.781ZM111.688 124H103.375V87.0625C103.375 84.5208 103.865 82.3854 104.844 80.6562C105.823 78.9062 107.219 77.5833 109.031 76.6875C110.844 75.7917 112.979 75.3438 115.438 75.3438C116.25 75.3438 117.021 75.3958 117.75 75.5C118.5 75.6042 119.24 75.75 119.969 75.9375L119.812 82.2188C119.417 82.1146 118.979 82.0417 118.5 82C118.042 81.9583 117.531 81.9375 116.969 81.9375C115.844 81.9375 114.885 82.1354 114.094 82.5312C113.302 82.9271 112.698 83.5104 112.281 84.2812C111.885 85.0312 111.688 85.9583 111.688 87.0625V124ZM118.531 90.1875V96.125H98.2812V90.1875H118.531ZM145.5 78.5L155.5 99.7188L165.562 78.5H175L159.875 107.344V124H151.156V107.344L136 78.5H145.5ZM175.406 107.438V106.781C175.406 104.302 175.76 102.021 176.469 99.9375C177.177 97.8333 178.208 96.0104 179.562 94.4688C180.917 92.9271 182.573 91.7292 184.531 90.875C186.49 90 188.719 89.5625 191.219 89.5625C193.76 89.5625 196.01 90 197.969 90.875C199.948 91.7292 201.615 92.9271 202.969 94.4688C204.323 96.0104 205.354 97.8333 206.062 99.9375C206.771 102.021 207.125 104.302 207.125 106.781V107.438C207.125 109.896 206.771 112.177 206.062 114.281C205.354 116.365 204.323 118.188 202.969 119.75C201.615 121.292 199.958 122.49 198 123.344C196.042 124.198 193.802 124.625 191.281 124.625C188.781 124.625 186.542 124.198 184.562 123.344C182.583 122.49 180.917 121.292 179.562 119.75C178.208 118.188 177.177 116.365 176.469 114.281C175.76 112.177 175.406 109.896 175.406 107.438ZM183.656 106.781V107.438C183.656 108.917 183.802 110.302 184.094 111.594C184.385 112.885 184.833 114.021 185.438 115C186.042 115.979 186.823 116.75 187.781 117.312C188.76 117.854 189.927 118.125 191.281 118.125C192.615 118.125 193.76 117.854 194.719 117.312C195.677 116.75 196.458 115.979 197.062 115C197.688 114.021 198.146 112.885 198.438 111.594C198.729 110.302 198.875 108.917 198.875 107.438V106.781C198.875 105.323 198.729 103.958 198.438 102.688C198.146 101.396 197.688 100.26 197.062 99.2812C196.458 98.2812 195.667 97.5 194.688 96.9375C193.729 96.3542 192.573 96.0625 191.219 96.0625C189.885 96.0625 188.74 96.3542 187.781 96.9375C186.823 97.5 186.042 98.2812 185.438 99.2812C184.833 100.26 184.385 101.396 184.094 102.688C183.802 103.958 183.656 105.323 183.656 106.781ZM233.25 115.969V90.1875H241.562V124H233.75L233.25 115.969ZM234.312 108.969L236.875 108.906C236.875 111.177 236.625 113.271 236.125 115.188C235.625 117.104 234.844 118.771 233.781 120.188C232.74 121.583 231.417 122.677 229.812 123.469C228.208 124.24 226.312 124.625 224.125 124.625C222.458 124.625 220.938 124.396 219.562 123.938C218.188 123.458 217 122.719 216 121.719C215.021 120.698 214.26 119.396 213.719 117.812C213.177 116.208 212.906 114.281 212.906 112.031V90.1875H221.156V112.094C221.156 113.219 221.281 114.156 221.531 114.906C221.802 115.656 222.167 116.271 222.625 116.75C223.104 117.208 223.656 117.542 224.281 117.75C224.927 117.938 225.615 118.031 226.344 118.031C228.344 118.031 229.917 117.635 231.062 116.844C232.229 116.031 233.062 114.948 233.562 113.594C234.062 112.219 234.312 110.677 234.312 108.969ZM257.125 97.0938V124H248.875V90.1875H256.688L257.125 97.0938ZM267.406 89.9688L267.281 97.6562C266.823 97.5729 266.302 97.5104 265.719 97.4688C265.156 97.4271 264.625 97.4062 264.125 97.4062C262.854 97.4062 261.74 97.5833 260.781 97.9375C259.823 98.2708 259.021 98.7604 258.375 99.4062C257.75 100.052 257.271 100.844 256.938 101.781C256.604 102.698 256.417 103.74 256.375 104.906L254.594 104.688C254.594 102.542 254.812 100.552 255.25 98.7188C255.688 96.8854 256.323 95.2812 257.156 93.9062C257.99 92.5312 259.031 91.4688 260.281 90.7188C261.552 89.9479 263.01 89.5625 264.656 89.5625C265.115 89.5625 265.604 89.6042 266.125 89.6875C266.667 89.75 267.094 89.8438 267.406 89.9688Z" fill="black"/>
<path d="M302.094 124H292.281L292.344 117.25H302.094C304.74 117.25 306.958 116.667 308.75 115.5C310.542 114.312 311.896 112.615 312.812 110.406C313.729 108.177 314.188 105.51 314.188 102.406V100.062C314.188 97.6667 313.927 95.5521 313.406 93.7188C312.885 91.8854 312.115 90.3438 311.094 89.0938C310.094 87.8438 308.854 86.8958 307.375 86.25C305.896 85.6042 304.198 85.2812 302.281 85.2812H292.094V78.5H302.281C305.323 78.5 308.094 79.0104 310.594 80.0312C313.115 81.0521 315.292 82.5208 317.125 84.4375C318.979 86.3333 320.396 88.6042 321.375 91.25C322.375 93.8958 322.875 96.8542 322.875 100.125V102.406C322.875 105.656 322.375 108.615 321.375 111.281C320.396 113.927 318.979 116.198 317.125 118.094C315.292 119.99 313.104 121.448 310.562 122.469C308.021 123.49 305.198 124 302.094 124ZM297.094 78.5V124H288.5V78.5H297.094ZM348.188 116.812V101.219C348.188 100.073 347.99 99.0833 347.594 98.25C347.198 97.4167 346.594 96.7708 345.781 96.3125C344.969 95.8542 343.938 95.625 342.688 95.625C341.583 95.625 340.615 95.8125 339.781 96.1875C338.969 96.5625 338.344 97.0938 337.906 97.7812C337.469 98.4479 337.25 99.2188 337.25 100.094H328.969C328.969 98.6979 329.302 97.375 329.969 96.125C330.635 94.8542 331.583 93.7292 332.812 92.75C334.062 91.75 335.552 90.9688 337.281 90.4062C339.031 89.8438 340.99 89.5625 343.156 89.5625C345.719 89.5625 348 90 350 90.875C352.021 91.7292 353.604 93.0208 354.75 94.75C355.917 96.4792 356.5 98.6562 356.5 101.281V116.031C356.5 117.719 356.604 119.167 356.812 120.375C357.042 121.562 357.375 122.594 357.812 123.469V124H349.406C349.01 123.146 348.708 122.062 348.5 120.75C348.292 119.417 348.188 118.104 348.188 116.812ZM349.344 103.406L349.406 108.312H344.188C342.896 108.312 341.76 108.448 340.781 108.719C339.802 108.969 339 109.344 338.375 109.844C337.75 110.323 337.281 110.906 336.969 111.594C336.656 112.26 336.5 113.021 336.5 113.875C336.5 114.708 336.688 115.458 337.062 116.125C337.458 116.792 338.021 117.323 338.75 117.719C339.5 118.094 340.375 118.281 341.375 118.281C342.833 118.281 344.104 117.99 345.188 117.406C346.271 116.802 347.115 116.073 347.719 115.219C348.323 114.365 348.646 113.552 348.688 112.781L351.062 116.344C350.771 117.198 350.333 118.104 349.75 119.062C349.167 120.021 348.417 120.917 347.5 121.75C346.583 122.583 345.479 123.271 344.188 123.812C342.896 124.354 341.396 124.625 339.688 124.625C337.5 124.625 335.542 124.188 333.812 123.312C332.083 122.438 330.719 121.24 329.719 119.719C328.719 118.198 328.219 116.469 328.219 114.531C328.219 112.74 328.552 111.156 329.219 109.781C329.885 108.406 330.875 107.25 332.188 106.312C333.5 105.354 335.125 104.635 337.062 104.156C339.021 103.656 341.26 103.406 343.781 103.406H349.344ZM379.938 90.1875V96.125H360.562V90.1875H379.938ZM365.75 81.875H374.031V114.25C374.031 115.25 374.167 116.021 374.438 116.562C374.708 117.104 375.115 117.469 375.656 117.656C376.198 117.844 376.844 117.938 377.594 117.938C378.135 117.938 378.635 117.906 379.094 117.844C379.552 117.781 379.938 117.719 380.25 117.656L380.281 123.844C379.594 124.073 378.812 124.26 377.938 124.406C377.083 124.552 376.115 124.625 375.031 124.625C373.177 124.625 371.552 124.312 370.156 123.688C368.76 123.042 367.677 122.01 366.906 120.594C366.135 119.156 365.75 117.26 365.75 114.906V81.875ZM404.062 116.812V101.219C404.062 100.073 403.865 99.0833 403.469 98.25C403.073 97.4167 402.469 96.7708 401.656 96.3125C400.844 95.8542 399.812 95.625 398.562 95.625C397.458 95.625 396.49 95.8125 395.656 96.1875C394.844 96.5625 394.219 97.0938 393.781 97.7812C393.344 98.4479 393.125 99.2188 393.125 100.094H384.844C384.844 98.6979 385.177 97.375 385.844 96.125C386.51 94.8542 387.458 93.7292 388.688 92.75C389.938 91.75 391.427 90.9688 393.156 90.4062C394.906 89.8438 396.865 89.5625 399.031 89.5625C401.594 89.5625 403.875 90 405.875 90.875C407.896 91.7292 409.479 93.0208 410.625 94.75C411.792 96.4792 412.375 98.6562 412.375 101.281V116.031C412.375 117.719 412.479 119.167 412.688 120.375C412.917 121.562 413.25 122.594 413.688 123.469V124H405.281C404.885 123.146 404.583 122.062 404.375 120.75C404.167 119.417 404.062 118.104 404.062 116.812ZM405.219 103.406L405.281 108.312H400.062C398.771 108.312 397.635 108.448 396.656 108.719C395.677 108.969 394.875 109.344 394.25 109.844C393.625 110.323 393.156 110.906 392.844 111.594C392.531 112.26 392.375 113.021 392.375 113.875C392.375 114.708 392.562 115.458 392.938 116.125C393.333 116.792 393.896 117.323 394.625 117.719C395.375 118.094 396.25 118.281 397.25 118.281C398.708 118.281 399.979 117.99 401.062 117.406C402.146 116.802 402.99 116.073 403.594 115.219C404.198 114.365 404.521 113.552 404.562 112.781L406.938 116.344C406.646 117.198 406.208 118.104 405.625 119.062C405.042 120.021 404.292 120.917 403.375 121.75C402.458 122.583 401.354 123.271 400.062 123.812C398.771 124.354 397.271 124.625 395.562 124.625C393.375 124.625 391.417 124.188 389.688 123.312C387.958 122.438 386.594 121.24 385.594 119.719C384.594 118.198 384.094 116.469 384.094 114.531C384.094 112.74 384.427 111.156 385.094 109.781C385.76 108.406 386.75 107.25 388.062 106.312C389.375 105.354 391 104.635 392.938 104.156C394.896 103.656 397.135 103.406 399.656 103.406H405.219Z" fill="#00A340"/>
</svg>
