<svg width="24" height="18" viewBox="0 0 24 18" fill="none" xmlns="http://www.w3.org/2000/svg">
<path d="M20.3137 1.5092C18.7606 0.809814 17.1066 0.294478 15.3641 0C15.1495 0.368097 14.897 0.871164 14.7328 1.27607C12.8894 1.00613 11.0586 1.00613 9.25302 1.27607C9.07625 0.871164 8.82372 0.368097 8.60908 0C6.86664 0.294478 5.2126 0.809814 3.65956 1.5092C0.528233 6.09815 -0.31773 10.5767 0.0989384 14.9816C2.18228 16.4908 4.18986 17.3988 6.1722 18C6.66462 17.3497 7.09392 16.6503 7.47271 15.9264C6.75301 15.6687 6.07119 15.3374 5.42724 14.9571C5.60401 14.8344 5.76815 14.6994 5.9323 14.5767C9.88432 16.3681 14.1646 16.3681 18.0662 14.5767C18.2303 14.7117 18.3945 14.8344 18.5712 14.9571C17.9273 15.3374 17.2328 15.6564 16.5258 15.9264C16.9046 16.6503 17.3338 17.3497 17.8263 18C19.8086 17.3988 21.8288 16.4908 23.8995 14.9816C24.392 9.86505 23.0536 5.43557 20.3389 1.5092H20.3137ZM8.00301 12.2822C6.81614 12.2822 5.84391 11.2147 5.84391 9.90186C5.84391 8.58898 6.79089 7.52149 8.00301 7.52149C9.21514 7.52149 10.1747 8.58898 10.1621 9.90186C10.1621 11.2025 9.21514 12.2822 8.00301 12.2822ZM15.9702 12.2822C14.7833 12.2822 13.8111 11.2147 13.8111 9.90186C13.8111 8.58898 14.7581 7.52149 15.9702 7.52149C17.1823 7.52149 18.1419 8.58898 18.1293 9.90186C18.1293 11.2025 17.1823 12.2822 15.9702 12.2822Z" fill="white"/>
</svg>
